<svg version="1.1" id="Layer_1" xmlns="http://www.w3.org/2000/svg" xmlns:xlink="http://www.w3.org/1999/xlink" x="0px" y="0px"
	 width="100%" viewBox="0 0 1080 1080" enable-background="new 0 0 1080 1080" xml:space="preserve">
<path fill="#000000" opacity="1.000000" stroke="none" 
	d="
M602.000000,1081.000000 
	C401.356445,1081.000000 201.212860,1081.000000 1.034647,1081.000000 
	C1.034647,721.064636 1.034647,361.129272 1.034647,1.096960 
	C360.893768,1.096960 720.787598,1.096960 1080.840698,1.096960 
	C1080.840698,360.999939 1080.840698,720.999939 1080.840698,1081.000000 
	C921.462158,1081.000000 761.981079,1081.000000 602.000000,1081.000000 
M468.500000,1015.000000 
	C497.413849,1014.666687 526.326904,1014.182739 555.241760,1014.028992 
	C633.821594,1013.611267 712.402039,1013.257935 790.982666,1013.027283 
	C840.812073,1012.881042 890.642212,1013.000000 940.472046,1013.000000 
	C966.136902,1013.000000 991.801758,1013.003601 1017.466614,1012.997437 
	C1023.480103,1012.995972 1023.916016,1012.470642 1021.955200,1006.828003 
	C1015.010437,986.843811 1007.921631,966.909485 1001.035645,946.905273 
	C989.299255,912.810791 977.705383,878.667236 965.993103,844.564453 
	C958.392700,822.434631 950.625366,800.362061 943.044983,778.225464 
	C931.311646,743.960999 919.714661,709.649719 907.981384,675.385193 
	C900.401062,653.248657 892.634277,631.175964 885.034058,609.046204 
	C873.321777,574.943359 861.698181,540.810120 850.004272,506.700989 
	C838.362244,472.742859 826.673401,438.800781 815.017151,404.847504 
	C803.673340,371.804413 792.358948,338.751221 781.004883,305.711639 
	C773.035767,282.522125 764.968811,259.366150 757.040527,236.162720 
	C745.641113,202.800613 734.349731,169.401627 722.970825,136.032486 
	C715.230591,113.333748 707.419373,90.659187 699.853699,68.597351 
	C600.337708,68.597351 501.440369,68.597351 402.549774,68.597351 
	C397.907654,81.969864 393.445587,94.805824 388.995758,107.646004 
	C381.333893,129.754654 373.633148,151.849976 366.032928,173.979813 
	C354.320740,208.082779 342.697144,242.216187 331.003235,276.325470 
	C319.361176,310.283722 307.672241,344.225891 296.015991,378.179291 
	C284.672180,411.222473 273.350525,444.273254 262.006744,477.316437 
	C250.350494,511.269745 238.638367,545.203918 227.025970,579.172180 
	C215.258408,613.594299 203.647400,648.069946 191.843796,682.479675 
	C184.355408,704.309692 176.544250,726.028992 169.049332,747.856812 
	C157.287430,782.111511 145.710709,816.429749 133.977417,850.694336 
	C126.397156,872.830872 118.618919,894.899536 111.034233,917.034607 
	C100.643776,947.358032 90.341774,977.711731 80.029282,1008.061768 
	C78.170578,1013.531982 78.528549,1013.981689 84.269379,1013.997986 
	C202.846893,1014.333984 321.424438,1014.668396 440.001953,1014.996643 
	C449.167908,1015.022034 458.333984,1015.000000 468.500000,1015.000000 
z"/>
<path fill="#FFFFFF" opacity="1.000000" stroke="none" 
	d="
M468.000000,1015.000000 
	C458.333984,1015.000000 449.167908,1015.022034 440.001953,1014.996643 
	C321.424438,1014.668396 202.846893,1014.333984 84.269379,1013.997986 
	C78.528549,1013.981689 78.170578,1013.531982 80.029282,1008.061768 
	C90.341774,977.711731 100.643776,947.358032 111.034233,917.034607 
	C118.618919,894.899536 126.397156,872.830872 133.977417,850.694336 
	C145.710709,816.429749 157.287430,782.111511 169.049332,747.856812 
	C176.544250,726.028992 184.355408,704.309692 191.843796,682.479675 
	C203.647400,648.069946 215.258408,613.594299 227.025970,579.172180 
	C238.638367,545.203918 250.350494,511.269745 262.006744,477.316437 
	C273.350525,444.273254 284.672180,411.222473 296.015991,378.179291 
	C307.672241,344.225891 319.361176,310.283722 331.003235,276.325470 
	C342.697144,242.216187 354.320740,208.082779 366.032928,173.979813 
	C373.633148,151.849976 381.333893,129.754654 388.995758,107.646004 
	C393.445587,94.805824 397.907654,81.969864 402.549774,68.597351 
	C501.440369,68.597351 600.337708,68.597351 699.853699,68.597351 
	C707.419373,90.659187 715.230591,113.333748 722.970825,136.032486 
	C734.349731,169.401627 745.641113,202.800613 757.040527,236.162720 
	C764.968811,259.366150 773.035767,282.522125 781.004883,305.711639 
	C792.358948,338.751221 803.673340,371.804413 815.017151,404.847504 
	C826.673401,438.800781 838.362244,472.742859 850.004272,506.700989 
	C861.698181,540.810120 873.321777,574.943359 885.034058,609.046204 
	C892.634277,631.175964 900.401062,653.248657 907.981384,675.385193 
	C919.714661,709.649719 931.311646,743.960999 943.044983,778.225464 
	C950.625366,800.362061 958.392700,822.434631 965.993103,844.564453 
	C977.705383,878.667236 989.299255,912.810791 1001.035645,946.905273 
	C1007.921631,966.909485 1015.010437,986.843811 1021.955200,1006.828003 
	C1023.916016,1012.470642 1023.480103,1012.995972 1017.466614,1012.997437 
	C991.801758,1013.003601 966.136902,1013.000000 940.472046,1013.000000 
	C890.642212,1013.000000 840.812073,1012.881042 790.982666,1013.027283 
	C712.402039,1013.257935 633.821594,1013.611267 555.241760,1014.028992 
	C526.326904,1014.182739 497.413849,1014.666687 468.000000,1015.000000 
M610.956482,377.617767 
	C610.217468,374.500092 609.726074,371.297913 608.696045,368.279572 
	C604.527466,356.064240 600.252136,343.884338 595.902222,331.732178 
	C592.026428,320.904358 587.867554,310.176758 584.076477,299.320099 
	C579.922913,287.425446 576.113464,275.411102 572.034363,263.489868 
	C567.115356,249.114395 562.055298,234.787277 557.088440,220.428085 
	C555.393494,215.527969 552.993530,211.085098 550.466064,206.531860 
	C546.139893,198.738083 544.734985,189.350571 541.836853,180.721832 
	C540.760925,177.518524 539.122681,174.895599 534.686890,174.912079 
	C494.364990,175.061996 454.042297,175.000031 413.630554,175.000031 
	C412.417023,177.634506 410.957733,180.112610 410.102264,182.784073 
	C407.086304,192.202713 404.499420,201.762680 401.335480,211.129089 
	C397.090881,223.694611 392.307404,236.077789 388.039062,248.635696 
	C383.725769,261.325775 379.919586,274.188385 375.593140,286.873749 
	C371.596039,298.593567 367.088593,310.138702 363.034210,321.839935 
	C360.992645,327.732178 359.652222,333.865875 357.651733,339.774261 
	C353.820404,351.090027 349.600677,362.274872 345.808105,373.603058 
	C341.674500,385.950012 336.480621,397.882355 332.843811,410.458160 
	C328.547089,425.315887 322.383911,439.624268 317.356537,454.282806 
	C311.236206,472.128357 305.527649,490.114685 299.500916,507.992920 
	C296.144348,517.950256 292.397919,527.776123 289.029510,537.729736 
	C286.989777,543.757263 285.532867,549.982971 283.465424,555.999939 
	C280.200348,565.502563 276.608154,574.892334 273.218872,584.352966 
	C270.426086,592.148621 267.682678,599.962524 264.995300,607.795105 
	C259.651276,623.370850 254.388718,638.974670 249.040634,654.549011 
	C243.432297,670.881226 237.793274,687.203125 232.110977,703.509766 
	C227.651306,716.307861 223.024170,729.048035 218.629272,741.868103 
	C216.150803,749.097839 214.126877,756.483765 211.630142,763.706665 
	C210.429764,767.179321 208.232162,770.319763 207.140350,773.814941 
	C204.147888,783.394714 201.687500,793.141296 198.666962,802.711487 
	C195.641922,812.295959 192.285400,821.779602 188.908295,831.248230 
	C185.051987,842.060425 180.819214,852.741150 177.103897,863.600098 
	C172.878281,875.950317 169.163879,888.474792 165.003891,900.848450 
	C161.238159,912.049255 157.190384,923.155640 153.231583,934.291138 
	C150.502457,941.967712 147.674545,949.609436 144.980255,957.298035 
	C144.379761,959.011658 144.154327,960.856567 143.676147,962.999878 
	C145.299042,962.999878 146.113861,962.996399 146.928665,963.000427 
	C214.506577,963.333252 282.084473,963.922546 349.662415,963.926819 
	C415.073883,963.930969 480.485107,963.167114 545.896973,963.041016 
	C632.386475,962.874268 718.876648,962.936707 805.366089,963.124146 
	C812.032471,963.138550 811.670715,960.126648 810.031616,955.911194 
	C807.075134,948.307800 804.286987,940.637939 801.502991,932.968811 
	C797.966614,923.226990 794.401794,913.493530 791.039978,903.691101 
	C787.890076,894.506592 784.925049,885.256958 781.999695,875.997742 
	C779.886719,869.309875 778.133179,862.506104 775.932312,855.848877 
	C772.381958,845.109741 768.698120,834.411865 764.872925,823.767578 
	C762.234558,816.426025 759.287415,809.194641 756.426208,801.934509 
	C755.367371,799.247864 753.912354,796.696655 753.061340,793.952454 
	C748.848083,780.367310 745.366089,766.522583 740.489136,753.185242 
	C735.602539,739.821167 730.451111,726.630920 726.672913,712.842468 
	C723.958984,702.937866 718.304565,694.040588 716.504700,683.516602 
	C715.160461,675.656921 711.002625,668.292297 708.226379,660.660400 
	C703.423584,647.457275 698.652649,634.241577 694.003174,620.983887 
	C691.525085,613.917908 689.310364,606.758972 687.011230,599.630859 
	C684.458984,591.718384 682.076111,583.748718 679.383728,575.884644 
	C675.812195,565.452820 672.057251,555.082886 668.297058,544.716858 
	C665.028931,535.707642 661.459290,526.803894 658.360596,517.738220 
	C655.055786,508.069275 652.245117,498.232422 649.030823,488.531097 
	C646.889587,482.068665 644.278748,475.762054 642.127563,469.302582 
	C638.407837,458.132874 635.030151,446.847992 631.228210,435.707275 
	C628.137146,426.649597 624.532959,417.768219 621.342285,408.742889 
	C617.784912,398.680054 614.437622,388.542969 610.956482,377.617767 
M815.947021,568.671875 
	C815.255737,567.832275 814.554810,567.000427 813.875488,566.151245 
	C812.905884,564.938965 811.347168,563.821289 811.108215,562.473816 
	C810.464111,558.840881 809.124512,556.713989 804.974731,556.935608 
	C801.898071,557.099792 800.849182,558.476196 800.991699,561.321777 
	C801.169006,564.862976 801.568420,567.967163 806.334351,568.126282 
	C807.703064,568.171936 809.046265,569.712219 810.353577,570.634644 
	C811.352417,571.339417 812.835327,572.972595 813.134399,572.769165 
	C814.293640,571.980530 815.065552,570.622437 815.947021,568.671875 
z"/>
<path fill="#000000" opacity="1.000000" stroke="none" 
	d="
M610.977722,378.027954 
	C614.437622,388.542969 617.784912,398.680054 621.342285,408.742889 
	C624.532959,417.768219 628.137146,426.649597 631.228210,435.707275 
	C635.030151,446.847992 638.407837,458.132874 642.127563,469.302582 
	C644.278748,475.762054 646.889587,482.068665 649.030823,488.531097 
	C652.245117,498.232422 655.055786,508.069275 658.360596,517.738220 
	C661.459290,526.803894 665.028931,535.707642 668.297058,544.716858 
	C672.057251,555.082886 675.812195,565.452820 679.383728,575.884644 
	C682.076111,583.748718 684.458984,591.718384 687.011230,599.630859 
	C689.310364,606.758972 691.525085,613.917908 694.003174,620.983887 
	C698.652649,634.241577 703.423584,647.457275 708.226379,660.660400 
	C711.002625,668.292297 715.160461,675.656921 716.504700,683.516602 
	C718.304565,694.040588 723.958984,702.937866 726.672913,712.842468 
	C730.451111,726.630920 735.602539,739.821167 740.489136,753.185242 
	C745.366089,766.522583 748.848083,780.367310 753.061340,793.952454 
	C753.912354,796.696655 755.367371,799.247864 756.426208,801.934509 
	C759.287415,809.194641 762.234558,816.426025 764.872925,823.767578 
	C768.698120,834.411865 772.381958,845.109741 775.932312,855.848877 
	C778.133179,862.506104 779.886719,869.309875 781.999695,875.997742 
	C784.925049,885.256958 787.890076,894.506592 791.039978,903.691101 
	C794.401794,913.493530 797.966614,923.226990 801.502991,932.968811 
	C804.286987,940.637939 807.075134,948.307800 810.031616,955.911194 
	C811.670715,960.126648 812.032471,963.138550 805.366089,963.124146 
	C718.876648,962.936707 632.386475,962.874268 545.896973,963.041016 
	C480.485107,963.167114 415.073883,963.930969 349.662415,963.926819 
	C282.084473,963.922546 214.506577,963.333252 146.928665,963.000427 
	C146.113861,962.996399 145.299042,962.999878 143.676147,962.999878 
	C144.154327,960.856567 144.379761,959.011658 144.980255,957.298035 
	C147.674545,949.609436 150.502457,941.967712 153.231583,934.291138 
	C157.190384,923.155640 161.238159,912.049255 165.003891,900.848450 
	C169.163879,888.474792 172.878281,875.950317 177.103897,863.600098 
	C180.819214,852.741150 185.051987,842.060425 188.908295,831.248230 
	C192.285400,821.779602 195.641922,812.295959 198.666962,802.711487 
	C201.687500,793.141296 204.147888,783.394714 207.140350,773.814941 
	C208.232162,770.319763 210.429764,767.179321 211.630142,763.706665 
	C214.126877,756.483765 216.150803,749.097839 218.629272,741.868103 
	C223.024170,729.048035 227.651306,716.307861 232.110977,703.509766 
	C237.793274,687.203125 243.432297,670.881226 249.040634,654.549011 
	C254.388718,638.974670 259.651276,623.370850 264.995300,607.795105 
	C267.682678,599.962524 270.426086,592.148621 273.218872,584.352966 
	C276.608154,574.892334 280.200348,565.502563 283.465424,555.999939 
	C285.532867,549.982971 286.989777,543.757263 289.029510,537.729736 
	C292.397919,527.776123 296.144348,517.950256 299.500916,507.992920 
	C305.527649,490.114685 311.236206,472.128357 317.356537,454.282806 
	C322.383911,439.624268 328.547089,425.315887 332.843811,410.458160 
	C336.480621,397.882355 341.674500,385.950012 345.808105,373.603058 
	C349.600677,362.274872 353.820404,351.090027 357.651733,339.774261 
	C359.652222,333.865875 360.992645,327.732178 363.034210,321.839935 
	C367.088593,310.138702 371.596039,298.593567 375.593140,286.873749 
	C379.919586,274.188385 383.725769,261.325775 388.039062,248.635696 
	C392.307404,236.077789 397.090881,223.694611 401.335480,211.129089 
	C404.499420,201.762680 407.086304,192.202713 410.102264,182.784073 
	C410.957733,180.112610 412.417023,177.634506 413.630554,175.000031 
	C454.042297,175.000031 494.364990,175.061996 534.686890,174.912079 
	C539.122681,174.895599 540.760925,177.518524 541.836853,180.721832 
	C544.734985,189.350571 546.139893,198.738083 550.466064,206.531860 
	C552.993530,211.085098 555.393494,215.527969 557.088440,220.428085 
	C562.055298,234.787277 567.115356,249.114395 572.034363,263.489868 
	C576.113464,275.411102 579.922913,287.425446 584.076477,299.320099 
	C587.867554,310.176758 592.026428,320.904358 595.902222,331.732178 
	C600.252136,343.884338 604.527466,356.064240 608.696045,368.279572 
	C609.726074,371.297913 610.217468,374.500092 610.977722,378.027954 
z"/>
<path fill="#FFFFFF" opacity="1.000000" stroke="none" 
	d="
M815.964355,569.074097 
	C815.065552,570.622437 814.293640,571.980530 813.134399,572.769165 
	C812.835327,572.972595 811.352417,571.339417 810.353577,570.634644 
	C809.046265,569.712219 807.703064,568.171936 806.334351,568.126282 
	C801.568420,567.967163 801.169006,564.862976 800.991699,561.321777 
	C800.849182,558.476196 801.898071,557.099792 804.974731,556.935608 
	C809.124512,556.713989 810.464111,558.840881 811.108215,562.473816 
	C811.347168,563.821289 812.905884,564.938965 813.875488,566.151245 
	C814.554810,567.000427 815.255737,567.832275 815.964355,569.074097 
z"/>
</svg>